<svg width="55" height="16" viewBox="0 0 55 16" fill="none" xmlns="http://www.w3.org/2000/svg">
<rect width="54.5" height="15.75" rx="7.875" fill="#17C964"/>
<path d="M9.4865 9.94588C9.098 9.94588 8.762 9.8645 8.4785 9.70175C8.195 9.53375 7.97713 9.30012 7.82488 9.00087C7.67263 8.69637 7.5965 8.33937 7.5965 7.92987C7.5965 7.62537 7.6385 7.35237 7.7225 7.11087C7.81175 6.86937 7.93775 6.66462 8.1005 6.49662C8.26325 6.32337 8.46013 6.19212 8.69113 6.10287C8.92738 6.01362 9.1925 5.969 9.4865 5.969C9.67025 5.969 9.8645 5.99787 10.0693 6.05562C10.274 6.11337 10.463 6.20787 10.6363 6.33912C10.694 6.38112 10.7308 6.431 10.7465 6.48875C10.7623 6.54125 10.7623 6.59637 10.7465 6.65412C10.736 6.71187 10.7098 6.76175 10.6678 6.80375C10.631 6.8405 10.5811 6.8615 10.5181 6.86675C10.4604 6.872 10.3974 6.85362 10.3291 6.81162C10.2031 6.71712 10.0693 6.64887 9.9275 6.60687C9.791 6.56487 9.65975 6.54387 9.53375 6.54387C9.3395 6.54387 9.16625 6.57537 9.014 6.63837C8.867 6.70137 8.741 6.79325 8.636 6.914C8.53625 7.0295 8.46013 7.17387 8.40762 7.34712C8.35513 7.51512 8.32888 7.712 8.32888 7.93775C8.32888 8.384 8.43388 8.73575 8.64388 8.993C8.85388 9.245 9.1505 9.371 9.53375 9.371C9.65975 9.371 9.791 9.35262 9.9275 9.31587C10.064 9.27387 10.1979 9.20562 10.3291 9.11112C10.3974 9.06912 10.4604 9.05337 10.5181 9.06387C10.5759 9.06912 10.6231 9.09275 10.6599 9.13475C10.7019 9.1715 10.7281 9.21875 10.7386 9.2765C10.7491 9.329 10.7439 9.38412 10.7229 9.44187C10.7071 9.49962 10.6704 9.54687 10.6126 9.58362C10.4446 9.70962 10.2609 9.8015 10.0614 9.85925C9.86188 9.917 9.67025 9.94588 9.4865 9.94588ZM13.0387 9.94588C12.6607 9.94588 12.3326 9.8645 12.0544 9.70175C11.7761 9.539 11.5609 9.308 11.4086 9.00875C11.2564 8.7095 11.1802 8.35775 11.1802 7.9535C11.1802 7.649 11.2222 7.376 11.3062 7.1345C11.3955 6.88775 11.5215 6.67775 11.6842 6.5045C11.847 6.33125 12.0412 6.2 12.267 6.11075C12.498 6.01625 12.7552 5.969 13.0387 5.969C13.4167 5.969 13.7449 6.05037 14.0231 6.21312C14.3014 6.37587 14.5166 6.60687 14.6689 6.90612C14.8211 7.20012 14.8972 7.54925 14.8972 7.9535C14.8972 8.258 14.8526 8.53362 14.7634 8.78037C14.6794 9.02712 14.556 9.23712 14.3932 9.41037C14.2305 9.58362 14.0336 9.7175 13.8026 9.812C13.5769 9.90125 13.3222 9.94588 13.0387 9.94588ZM13.0387 9.37887C13.2697 9.37887 13.4692 9.32375 13.6372 9.2135C13.8105 9.10325 13.9417 8.94312 14.031 8.73312C14.1255 8.52312 14.1727 8.26325 14.1727 7.9535C14.1727 7.4915 14.0704 7.13975 13.8656 6.89825C13.6609 6.65675 13.3852 6.536 13.0387 6.536C12.813 6.536 12.6135 6.59112 12.4402 6.70137C12.2722 6.80637 12.141 6.96387 12.0465 7.17387C11.952 7.38387 11.9047 7.64375 11.9047 7.9535C11.9047 8.4155 12.0071 8.76987 12.2119 9.01662C12.4219 9.25812 12.6975 9.37887 13.0387 9.37887ZM16.1696 9.93013C16.0594 9.93013 15.9727 9.89863 15.9097 9.83562C15.8467 9.77262 15.8152 9.68075 15.8152 9.56V6.347C15.8152 6.22625 15.8467 6.137 15.9097 6.07925C15.9727 6.01625 16.0594 5.98475 16.1696 5.98475C16.2799 5.98475 16.3639 6.01625 16.4216 6.07925C16.4846 6.137 16.5161 6.22625 16.5161 6.347V6.99275L16.4295 6.87462C16.5397 6.57537 16.7182 6.34962 16.965 6.19737C17.217 6.04512 17.5031 5.969 17.8234 5.969C18.1331 5.969 18.3877 6.02412 18.5872 6.13437C18.7867 6.24462 18.9364 6.41262 19.0361 6.63837C19.1359 6.86412 19.1857 7.15025 19.1857 7.49675V9.56C19.1857 9.68075 19.1542 9.77262 19.0912 9.83562C19.0335 9.89863 18.9469 9.93013 18.8314 9.93013C18.7159 9.93013 18.6266 9.89863 18.5636 9.83562C18.5006 9.77262 18.4691 9.68075 18.4691 9.56V7.53612C18.4691 7.19487 18.4035 6.9455 18.2722 6.788C18.141 6.6305 17.931 6.55175 17.6422 6.55175C17.3062 6.55175 17.0359 6.65675 16.8311 6.86675C16.6316 7.0715 16.5319 7.34975 16.5319 7.7015V9.56C16.5319 9.80675 16.4111 9.93013 16.1696 9.93013ZM20.9046 9.93013C20.7891 9.93013 20.6998 9.89863 20.6368 9.83562C20.5738 9.77262 20.5423 9.68075 20.5423 9.56V6.59112H20.0698C19.9753 6.59112 19.9018 6.5675 19.8493 6.52025C19.7968 6.46775 19.7706 6.3995 19.7706 6.3155C19.7706 6.22625 19.7968 6.158 19.8493 6.11075C19.9018 6.0635 19.9753 6.03987 20.0698 6.03987H20.7392L20.5423 6.22887V5.9375C20.5423 5.4335 20.6631 5.05025 20.9046 4.78775C21.1513 4.52525 21.5162 4.37037 21.9992 4.32312L22.2276 4.30737C22.3168 4.29687 22.3877 4.31 22.4402 4.34675C22.4927 4.37825 22.5268 4.42025 22.5426 4.47275C22.5636 4.52525 22.5662 4.58037 22.5504 4.63812C22.5399 4.69587 22.5163 4.74575 22.4796 4.78775C22.4428 4.82975 22.3956 4.85075 22.3378 4.85075L22.1173 4.8665C21.8181 4.8875 21.6002 4.97937 21.4637 5.14212C21.3272 5.30487 21.2589 5.5385 21.2589 5.843V6.158L21.1566 6.03987H23.3064C23.4219 6.03987 23.5086 6.074 23.5663 6.14225C23.6293 6.20525 23.6608 6.29975 23.6608 6.42575V9.5285C23.6608 9.64925 23.6319 9.74375 23.5742 9.812C23.5164 9.88025 23.4272 9.91438 23.3064 9.91438C23.1909 9.91438 23.1017 9.88025 23.0387 9.812C22.9757 9.74375 22.9442 9.64925 22.9442 9.5285V6.59112H21.2589V9.56C21.2589 9.80675 21.1408 9.93013 20.9046 9.93013ZM23.3143 5.15C23.1778 5.15 23.0702 5.11325 22.9914 5.03975C22.9127 4.961 22.8733 4.85862 22.8733 4.73262C22.8733 4.59612 22.9127 4.49375 22.9914 4.4255C23.0702 4.352 23.1778 4.31525 23.3143 4.31525C23.4613 4.31525 23.5716 4.352 23.6451 4.4255C23.7238 4.49375 23.7632 4.59612 23.7632 4.73262C23.7632 4.85862 23.7238 4.961 23.6451 5.03975C23.5716 5.11325 23.4613 5.15 23.3143 5.15ZM25.1832 9.93013C25.0624 9.93013 24.9705 9.89863 24.9075 9.83562C24.8445 9.77262 24.813 9.68075 24.813 9.56V6.347C24.813 6.22625 24.8445 6.137 24.9075 6.07925C24.9705 6.01625 25.0572 5.98475 25.1674 5.98475C25.2777 5.98475 25.3617 6.01625 25.4194 6.07925C25.4824 6.137 25.5139 6.22625 25.5139 6.347V6.95337H25.4352C25.5192 6.63837 25.6767 6.3995 25.9077 6.23675C26.1387 6.074 26.43 5.98212 26.7818 5.96112C26.8658 5.95587 26.934 5.97687 26.9865 6.02412C27.039 6.06612 27.0679 6.13962 27.0732 6.24462C27.0784 6.34437 27.0548 6.42575 27.0023 6.48875C26.9498 6.5465 26.8684 6.58062 26.7582 6.59112L26.6164 6.599C26.2699 6.63575 26.0022 6.74862 25.8132 6.93762C25.6294 7.12662 25.5375 7.3865 25.5375 7.71725V9.56C25.5375 9.68075 25.506 9.77262 25.443 9.83562C25.3853 9.89863 25.2987 9.93013 25.1832 9.93013ZM28.0594 9.93013C27.9491 9.93013 27.8625 9.89863 27.7995 9.83562C27.7365 9.77262 27.705 9.68075 27.705 9.56V6.347C27.705 6.22625 27.7365 6.137 27.7995 6.07925C27.8625 6.01625 27.9491 5.98475 28.0594 5.98475C28.1696 5.98475 28.2536 6.01625 28.3114 6.07925C28.3744 6.137 28.4059 6.22625 28.4059 6.347V7.01637L28.3193 6.87462C28.419 6.58587 28.5791 6.36275 28.7996 6.20525C29.0254 6.04775 29.2931 5.969 29.6029 5.969C29.9284 5.969 30.1909 6.04775 30.3904 6.20525C30.5899 6.3575 30.7238 6.59112 30.792 6.90612H30.6818C30.7763 6.61737 30.9443 6.389 31.1858 6.221C31.4325 6.053 31.7186 5.969 32.0441 5.969C32.3329 5.969 32.5691 6.02675 32.7529 6.14225C32.9419 6.2525 33.0836 6.4205 33.1781 6.64625C33.2726 6.86675 33.3199 7.15025 33.3199 7.49675V9.56C33.3199 9.68075 33.2884 9.77262 33.2254 9.83562C33.1624 9.89863 33.0758 9.93013 32.9655 9.93013C32.85 9.93013 32.7608 9.89863 32.6978 9.83562C32.6348 9.77262 32.6033 9.68075 32.6033 9.56V7.52825C32.6033 7.19225 32.5455 6.9455 32.43 6.788C32.3145 6.6305 32.1203 6.55175 31.8473 6.55175C31.548 6.55175 31.3091 6.65675 31.1306 6.86675C30.9574 7.0715 30.8708 7.355 30.8708 7.71725V9.56C30.8708 9.68075 30.8393 9.77262 30.7763 9.83562C30.7185 9.89863 30.6319 9.93013 30.5164 9.93013C30.4009 9.93013 30.3116 9.89863 30.2486 9.83562C30.1856 9.77262 30.1541 9.68075 30.1541 9.56V7.52825C30.1541 7.19225 30.0964 6.9455 29.9809 6.788C29.8654 6.6305 29.6711 6.55175 29.3981 6.55175C29.0989 6.55175 28.86 6.65675 28.6815 6.86675C28.5083 7.0715 28.4216 7.355 28.4216 7.71725V9.56C28.4216 9.80675 28.3009 9.93013 28.0594 9.93013ZM35.6928 9.94588C35.4303 9.94588 35.1915 9.89338 34.9762 9.78837C34.7662 9.68337 34.6008 9.54162 34.4801 9.36312C34.3646 9.18462 34.3068 8.98512 34.3068 8.76462C34.3068 8.48112 34.3777 8.258 34.5195 8.09525C34.6612 7.9325 34.9001 7.817 35.2361 7.74875C35.5721 7.67525 36.0236 7.6385 36.5906 7.6385H36.9607V8.09525H36.6063C36.2021 8.09525 35.8818 8.11362 35.6456 8.15037C35.4146 8.18712 35.2518 8.25275 35.1573 8.34725C35.0628 8.4365 35.0156 8.5625 35.0156 8.72525C35.0156 8.93 35.0865 9.098 35.2282 9.22925C35.3752 9.3605 35.5747 9.42612 35.8267 9.42612C36.0262 9.42612 36.2021 9.37887 36.3543 9.28437C36.5066 9.18462 36.6273 9.05337 36.7166 8.89062C36.8058 8.72262 36.8505 8.531 36.8505 8.31575V7.41012C36.8505 7.10037 36.7875 6.87725 36.6615 6.74075C36.5355 6.599 36.3228 6.52812 36.0236 6.52812C35.8503 6.52812 35.6718 6.55175 35.4881 6.599C35.3043 6.64625 35.1127 6.71975 34.9132 6.8195C34.8345 6.85625 34.7662 6.86937 34.7085 6.85887C34.6507 6.84312 34.6035 6.81162 34.5667 6.76437C34.5352 6.71187 34.5168 6.65675 34.5116 6.599C34.5116 6.536 34.5247 6.47562 34.551 6.41787C34.5825 6.36012 34.635 6.31812 34.7085 6.29187C34.9395 6.17637 35.1678 6.095 35.3936 6.04775C35.6246 5.99525 35.8398 5.969 36.0393 5.969C36.3806 5.969 36.6615 6.02412 36.882 6.13437C37.1025 6.23937 37.2678 6.40475 37.3781 6.6305C37.4883 6.851 37.5435 7.1345 37.5435 7.481V9.56C37.5435 9.68075 37.5146 9.77262 37.4568 9.83562C37.3991 9.89863 37.3151 9.93013 37.2048 9.93013C37.0998 9.93013 37.0158 9.89863 36.9528 9.83562C36.8951 9.77262 36.8662 9.68075 36.8662 9.56V9.00087H36.9371C36.8951 9.19512 36.8163 9.36312 36.7008 9.50487C36.5853 9.64662 36.441 9.75687 36.2677 9.83562C36.0997 9.90913 35.9081 9.94588 35.6928 9.94588ZM40.1359 9.94588C39.7999 9.94588 39.5033 9.86712 39.2461 9.70962C38.9941 9.54687 38.7972 9.31587 38.6554 9.01662C38.5137 8.71212 38.4428 8.35775 38.4428 7.9535C38.4428 7.544 38.5111 7.19225 38.6476 6.89825C38.7893 6.599 38.9862 6.37062 39.2382 6.21312C39.4954 6.05037 39.7947 5.969 40.1359 5.969C40.4772 5.969 40.7712 6.05562 41.0179 6.22887C41.2647 6.39687 41.4301 6.62262 41.5141 6.90612H41.4274V4.63025C41.4274 4.5095 41.4563 4.42025 41.5141 4.3625C41.5771 4.2995 41.6663 4.268 41.7818 4.268C41.8973 4.268 41.9866 4.2995 42.0496 4.3625C42.1126 4.42025 42.1441 4.5095 42.1441 4.63025V9.56C42.1441 9.68075 42.1126 9.77262 42.0496 9.83562C41.9866 9.89863 41.8973 9.93013 41.7818 9.93013C41.6716 9.93013 41.5849 9.89863 41.5219 9.83562C41.4589 9.77262 41.4274 9.68075 41.4274 9.56V8.84337L41.5141 8.98512C41.4353 9.27912 41.2699 9.51275 41.0179 9.686C40.7712 9.85925 40.4772 9.94588 40.1359 9.94588ZM40.3013 9.37887C40.5323 9.37887 40.7318 9.32375 40.8998 9.2135C41.0731 9.10325 41.2043 8.94312 41.2936 8.73312C41.3881 8.52312 41.4353 8.26325 41.4353 7.9535C41.4353 7.4915 41.3329 7.13975 41.1282 6.89825C40.9234 6.65675 40.6478 6.536 40.3013 6.536C40.0756 6.536 39.8761 6.59112 39.7028 6.70137C39.5348 6.80637 39.4036 6.96387 39.3091 7.17387C39.2146 7.38387 39.1673 7.64375 39.1673 7.9535C39.1673 8.4155 39.2697 8.76987 39.4744 9.01662C39.6844 9.25812 39.9601 9.37887 40.3013 9.37887ZM44.5138 9.94588C44.2513 9.94588 44.0124 9.89338 43.7971 9.78837C43.5871 9.68337 43.4218 9.54162 43.301 9.36312C43.1855 9.18462 43.1278 8.98512 43.1278 8.76462C43.1278 8.48112 43.1986 8.258 43.3404 8.09525C43.4821 7.9325 43.721 7.817 44.057 7.74875C44.393 7.67525 44.8445 7.6385 45.4115 7.6385H45.7816V8.09525H45.4273C45.023 8.09525 44.7028 8.11362 44.4665 8.15037C44.2355 8.18712 44.0728 8.25275 43.9783 8.34725C43.8838 8.4365 43.8365 8.5625 43.8365 8.72525C43.8365 8.93 43.9074 9.098 44.0491 9.22925C44.1961 9.3605 44.3956 9.42612 44.6476 9.42612C44.8471 9.42612 45.023 9.37887 45.1753 9.28437C45.3275 9.18462 45.4483 9.05337 45.5375 8.89062C45.6268 8.72262 45.6714 8.531 45.6714 8.31575V7.41012C45.6714 7.10037 45.6084 6.87725 45.4824 6.74075C45.3564 6.599 45.1438 6.52812 44.8445 6.52812C44.6713 6.52812 44.4928 6.55175 44.309 6.599C44.1253 6.64625 43.9336 6.71975 43.7341 6.8195C43.6554 6.85625 43.5871 6.86937 43.5294 6.85887C43.4716 6.84312 43.4244 6.81162 43.3876 6.76437C43.3561 6.71187 43.3378 6.65675 43.3325 6.599C43.3325 6.536 43.3456 6.47562 43.3719 6.41787C43.4034 6.36012 43.4559 6.31812 43.5294 6.29187C43.7604 6.17637 43.9888 6.095 44.2145 6.04775C44.4455 5.99525 44.6608 5.969 44.8603 5.969C45.2015 5.969 45.4824 6.02412 45.7029 6.13437C45.9234 6.23937 46.0888 6.40475 46.199 6.6305C46.3093 6.851 46.3644 7.1345 46.3644 7.481V9.56C46.3644 9.68075 46.3355 9.77262 46.2778 9.83562C46.22 9.89863 46.136 9.93013 46.0258 9.93013C45.9208 9.93013 45.8368 9.89863 45.7738 9.83562C45.716 9.77262 45.6871 9.68075 45.6871 9.56V9.00087H45.758C45.716 9.19512 45.6373 9.36312 45.5218 9.50487C45.4063 9.64662 45.2619 9.75687 45.0886 9.83562C44.9206 9.90913 44.729 9.94588 44.5138 9.94588Z" fill="#020202"/>
</svg>
