<svg width="9" height="5" viewBox="0 0 9 5" fill="none" xmlns="http://www.w3.org/2000/svg">
<path d="M8.13456 0.447082C8.08421 0.396312 8.0243 0.356015 7.95829 0.328515C7.89229 0.301016 7.82149 0.286858 7.74998 0.286858C7.67847 0.286858 7.60768 0.301016 7.54167 0.328515C7.47566 0.356015 7.41575 0.396312 7.3654 0.447082L4.88456 2.92792C4.83421 2.97868 4.7743 3.01898 4.70829 3.04648C4.64229 3.07398 4.57149 3.08814 4.49998 3.08814C4.42848 3.08814 4.35768 3.07398 4.29167 3.04648C4.22566 3.01898 4.16575 2.97868 4.1154 2.92792L1.63456 0.447082C1.58421 0.396312 1.5243 0.356015 1.45829 0.328515C1.39229 0.301016 1.32149 0.286858 1.24998 0.286858C1.17848 0.286858 1.10768 0.301016 1.04167 0.328515C0.975662 0.356015 0.915753 0.396312 0.865398 0.447082C0.764512 0.54857 0.707886 0.685856 0.707886 0.828957C0.707886 0.972057 0.764512 1.10934 0.865398 1.21083L3.35165 3.69708C3.65634 4.00139 4.06936 4.17232 4.49998 4.17232C4.93061 4.17232 5.34363 4.00139 5.64831 3.69708L8.13456 1.21083C8.23545 1.10934 8.29208 0.972057 8.29208 0.828957C8.29208 0.685856 8.23545 0.54857 8.13456 0.447082Z" fill="black"/>
</svg>
