<svg width="13" height="17" viewBox="0 0 13 17" fill="none" xmlns="http://www.w3.org/2000/svg">
<path d="M11.1041 6.72917C11.3859 6.72917 11.6561 6.61723 11.8554 6.41797C12.0546 6.21871 12.1666 5.94846 12.1666 5.66667V5.18004C12.1653 4.18234 11.7684 3.22587 11.0629 2.52038C10.3574 1.8149 9.40092 1.41798 8.40321 1.41667H7.56242V1.0625C7.56242 0.780707 7.45048 0.510456 7.25122 0.311199C7.05196 0.111942 6.78171 0 6.49992 0C6.21813 0 5.94788 0.111942 5.74862 0.311199C5.54936 0.510456 5.43742 0.780707 5.43742 1.0625V1.41667H4.59663C3.69314 1.41532 2.81931 1.73906 2.13478 2.32874C1.45026 2.91842 1.00072 3.73469 0.86829 4.62843C0.735863 5.52217 0.929384 6.43372 1.4135 7.19656C1.89762 7.95941 2.64002 8.52263 3.50509 8.78333L5.43742 9.31175V13.4583H4.59663C4.16228 13.4578 3.74588 13.285 3.43874 12.9778C3.13161 12.6707 2.95882 12.2543 2.95825 11.82V11.3333C2.95825 11.0515 2.84631 10.7813 2.64706 10.582C2.4478 10.3828 2.17755 10.2708 1.89575 10.2708C1.61396 10.2708 1.34371 10.3828 1.14445 10.582C0.945196 10.7813 0.833254 11.0515 0.833254 11.3333V11.82C0.834566 12.8177 1.23148 13.7741 1.93697 14.4796C2.64246 15.1851 3.59892 15.582 4.59663 15.5833H5.43742V15.9375C5.43742 16.2193 5.54936 16.4895 5.74862 16.6888C5.94788 16.8881 6.21813 17 6.49992 17C6.78171 17 7.05196 16.8881 7.25122 16.6888C7.45048 16.4895 7.56242 16.2193 7.56242 15.9375V15.5833H8.40321C9.30671 15.5847 10.1805 15.2609 10.8651 14.6713C11.5496 14.0816 11.9991 13.2653 12.1316 12.3716C12.264 11.4778 12.0705 10.5663 11.5863 9.80344C11.1022 9.04059 10.3598 8.47737 9.49475 8.21667L7.56242 7.68967V3.54167H8.40321C8.83756 3.54223 9.25396 3.71502 9.5611 4.02216C9.86823 4.32929 10.041 4.74569 10.0416 5.18004V5.66667C10.0416 5.94846 10.1535 6.21871 10.3528 6.41797C10.552 6.61723 10.8223 6.72917 11.1041 6.72917ZM8.8955 10.256C9.26918 10.3737 9.58832 10.6214 9.79509 10.9542C10.0019 11.287 10.0826 11.6829 10.0226 12.07C9.96269 12.4572 9.76603 12.8101 9.4683 13.0648C9.17057 13.3195 8.79147 13.4591 8.39967 13.4583H7.56242V9.89188L8.8955 10.256ZM5.43742 7.10812L4.10434 6.74404C3.73095 6.62637 3.41201 6.37894 3.20522 6.04652C2.99844 5.7141 2.91746 5.31865 2.97694 4.9317C3.03643 4.54476 3.23244 4.19189 3.52953 3.93692C3.82661 3.68196 4.20514 3.54175 4.59663 3.54167H5.43742V7.10812Z" fill="#FFD52C"/>
</svg>
