<svg width="16" height="17" viewBox="0 0 16 17" fill="none" xmlns="http://www.w3.org/2000/svg">
<path d="M7.7998 1.39966C11.7762 1.39966 14.9999 4.62349 15 8.59985C15 12.5763 11.7763 15.8 7.7998 15.8C3.82344 15.7999 0.599609 12.5762 0.599609 8.59985C0.599715 4.62356 3.82351 1.39976 7.7998 1.39966Z" stroke="#17C964" stroke-width="1.2"/>
<path d="M6.23266 11.596C6.23266 11.518 6.21766 11.479 6.18766 11.479L5.98066 11.578C5.98066 11.536 5.95666 11.506 5.90866 11.488L5.83666 11.479C5.78866 11.479 5.72866 11.5 5.65666 11.542C5.64466 11.512 5.62966 11.482 5.61166 11.452C5.59366 11.422 5.57866 11.395 5.56666 11.371C5.48866 11.221 5.41066 11.056 5.33266 10.876C5.26066 10.69 5.19166 10.513 5.12566 10.345C5.06566 10.177 5.01766 10.045 4.98166 9.94901C4.95766 9.87101 4.93066 9.75401 4.90066 9.59801C4.87066 9.44201 4.84066 9.24401 4.81066 9.00401C4.87666 9.04601 4.92766 9.06701 4.96366 9.06701C5.00566 9.06701 5.04466 9.00401 5.08066 8.87801C5.09866 8.90201 5.13166 8.91401 5.17966 8.91401C5.21566 8.91401 5.24266 8.90201 5.26066 8.87801L5.40466 8.66201L5.56666 8.71601H5.57566C5.58766 8.71601 5.59966 8.71001 5.61166 8.69801C5.62366 8.68601 5.64166 8.67401 5.66566 8.66201C5.71366 8.63201 5.74966 8.61701 5.77366 8.61701L5.80066 8.62601C5.95066 8.69801 6.04666 8.83001 6.08866 9.02201C6.19666 9.47801 6.30466 9.70601 6.41266 9.70601C6.52066 9.70601 6.64666 9.59201 6.79066 9.36401C6.86266 9.25001 6.93466 9.11801 7.00666 8.96801C7.08466 8.81801 7.16266 8.65001 7.24066 8.46401C7.25266 8.53601 7.26466 8.57201 7.27666 8.57201C7.30666 8.57201 7.35766 8.49701 7.42966 8.34701C7.50766 8.19701 7.63066 7.99001 7.79866 7.72601C7.89466 7.56401 8.01466 7.38101 8.15866 7.17701C8.30866 6.97301 8.46766 6.76301 8.63566 6.54701C8.80366 6.33101 8.96566 6.12701 9.12166 5.93501C9.28366 5.74301 9.42766 5.57801 9.55366 5.44001C9.67966 5.30201 9.77266 5.21201 9.83266 5.17001C10.0607 5.01401 10.2407 4.86401 10.3727 4.72001C10.3667 4.76201 10.3577 4.80101 10.3457 4.83701C10.3397 4.86701 10.3367 4.88801 10.3367 4.90001C10.3367 4.92401 10.3487 4.93601 10.3727 4.93601L10.6247 4.81001V4.84601C10.6247 4.89401 10.6367 4.91801 10.6607 4.91801C10.6787 4.91801 10.7147 4.89101 10.7687 4.83701C10.8227 4.78301 10.8527 4.74401 10.8587 4.72001L10.8407 4.84601L11.1467 4.66601L11.0747 4.82801C11.1707 4.76201 11.2397 4.72901 11.2817 4.72901C11.3057 4.72901 11.3237 4.74401 11.3357 4.77401C11.3477 4.79801 11.3537 4.82201 11.3537 4.84601C11.3537 4.88201 11.3387 4.92401 11.3087 4.97201C11.2787 5.02001 11.2397 5.07701 11.1917 5.14301C11.1557 5.19101 11.0957 5.26301 11.0117 5.35901C10.9337 5.44901 10.8137 5.58401 10.6517 5.76401C10.4897 5.93801 10.2737 6.18101 10.0037 6.49301C9.93166 6.57101 9.82066 6.70901 9.67066 6.90701C9.52066 7.09901 9.34966 7.32401 9.15766 7.58201C8.97166 7.83401 8.78566 8.08901 8.59966 8.34701C8.41366 8.60501 8.24866 8.83901 8.10466 9.04901C7.96066 9.25301 7.85866 9.40601 7.79866 9.50801L7.24066 10.453C7.12066 10.657 7.02166 10.825 6.94366 10.957C6.86566 11.083 6.80566 11.17 6.76366 11.218C6.67366 11.326 6.57466 11.422 6.46666 11.506L6.38566 11.461L6.31366 11.506L6.23266 11.596Z" fill="#17C964"/>
</svg>
