<svg width="7" height="12" viewBox="0 0 7 12" fill="none" xmlns="http://www.w3.org/2000/svg">
<path d="M0.764414 0.316723C0.691306 0.389234 0.633278 0.475502 0.593679 0.570553C0.554079 0.665603 0.533691 0.767553 0.533691 0.870522C0.533691 0.973493 0.554079 1.07544 0.593679 1.17049C0.633278 1.26554 0.691306 1.35181 0.764414 1.42432L4.33681 4.99672C4.40992 5.06923 4.46795 5.1555 4.50755 5.25055C4.54715 5.3456 4.56754 5.44755 4.56754 5.55052C4.56754 5.65349 4.54715 5.75544 4.50755 5.85049C4.46795 5.94554 4.40992 6.03181 4.33681 6.10432L0.764414 9.67672C0.691306 9.74923 0.633278 9.8355 0.593679 9.93055C0.554079 10.0256 0.533691 10.1276 0.533691 10.2305C0.533691 10.3335 0.554079 10.4354 0.593679 10.5305C0.633278 10.6255 0.691306 10.7118 0.764414 10.7843C0.910557 10.9296 1.10825 11.0111 1.31431 11.0111C1.52038 11.0111 1.71807 10.9296 1.86421 10.7843L5.44442 7.20412C5.88262 6.76537 6.12876 6.17062 6.12876 5.55052C6.12876 4.93042 5.88262 4.33567 5.44442 3.89692L1.86421 0.316723C1.71807 0.171447 1.52038 0.0899029 1.31431 0.0899029C1.10825 0.0899029 0.910557 0.171447 0.764414 0.316723Z" fill="black"/>
</svg>
