<svg width="24" height="21" viewBox="0 0 24 21" fill="none" xmlns="http://www.w3.org/2000/svg">
<path d="M5.76013 16.7998C6.16124 16.4986 6.65984 16.32 7.20013 16.32C8.52561 16.32 9.60013 17.3945 9.60013 18.72C9.60013 19.2603 9.4216 19.7589 9.1203 20.16M17.2801 16.7998C16.879 16.4986 16.3804 16.32 15.8401 16.32C14.5147 16.32 13.4401 17.3945 13.4401 18.72C13.4401 19.2603 13.6187 19.7589 13.9199 20.16M17.28 9.59996C18.2289 9.59922 18.7263 9.58717 19.1118 9.39073C19.4731 9.20666 19.7668 8.91294 19.9508 8.55167C20.1601 8.14096 20.1601 7.6033 20.1601 6.528V5.952C20.1601 4.87671 20.1601 4.33905 19.9508 3.92834C19.7668 3.56707 19.4731 3.27335 19.1118 3.08928C18.7011 2.88 18.1634 2.88 17.0881 2.88H5.95213C4.87683 2.88 4.33917 2.88 3.92847 3.08928C3.56719 3.27335 3.27347 3.56707 3.0894 3.92834C2.88013 4.33905 2.88013 4.87671 2.88013 5.952V6.528C2.88013 7.6033 2.88013 8.14096 3.0894 8.55167C3.27347 8.91294 3.56719 9.20666 3.92847 9.39073C4.31397 9.58717 4.81133 9.59922 5.76017 9.59996M17.28 9.59996C17.2801 9.66202 17.2801 9.72596 17.2801 9.792V17.088C17.2801 18.1633 17.2801 18.701 17.0708 19.1117C16.8868 19.4729 16.5931 19.7667 16.2318 19.9507C15.8211 20.16 15.2834 20.16 14.2081 20.16H8.83213C7.75682 20.16 7.21917 20.16 6.80847 19.9507C6.44719 19.7667 6.15347 19.4729 5.9694 19.1117C5.76013 18.701 5.76013 18.1633 5.76013 17.088V9.792C5.76013 9.72596 5.76013 9.66202 5.76017 9.59996M17.28 9.59996C17.2794 8.65117 17.2673 8.15384 17.0708 7.76834C16.8868 7.40707 16.5931 7.11335 16.2318 6.92927C15.8211 6.72 15.2834 6.72 14.2081 6.72H8.83213C7.75683 6.72 7.21917 6.72 6.80847 6.92927C6.44719 7.11335 6.15347 7.40707 5.9694 7.76834C5.77297 8.15384 5.76091 8.65117 5.76017 9.59996M13.4401 11.52C13.4401 12.5804 12.5805 13.44 11.5201 13.44C10.4597 13.44 9.60013 12.5804 9.60013 11.52C9.60013 10.4596 10.4597 9.6 11.5201 9.6C12.5805 9.6 13.4401 10.4596 13.4401 11.52Z" stroke="white" stroke-width="1.92" stroke-linecap="round" stroke-linejoin="round"/>
</svg>
