<svg width="18" height="16" viewBox="0 0 18 16" fill="none" xmlns="http://www.w3.org/2000/svg">
<path d="M18 5.43052C18 5.14054 17.8815 4.86243 17.6705 4.65738C17.4595 4.45233 17.1734 4.33713 16.875 4.33713C16.875 4.33713 16.437 4.33713 16.4062 4.34296C15.8454 3.33305 15.2029 2.36807 14.4847 1.45713C14.11 0.983542 13.5907 0.637305 13.0012 0.467973C11.6805 -0.155991 6.3195 -0.155991 4.99875 0.467973C4.40925 0.637305 3.88998 0.983542 3.51525 1.45713C2.79709 2.36807 2.15456 3.33305 1.59375 4.34296C1.563 4.33713 1.125 4.33713 1.125 4.33713C0.826631 4.33713 0.540483 4.45233 0.329505 4.65738C0.118526 4.86243 0 5.14054 0 5.43052L0 10.1686C0.000145003 10.6802 0.138833 11.1829 0.40213 11.626C0.665428 12.0691 1.04406 12.437 1.5 12.6928V13.8132C1.5 14.3932 1.73705 14.9494 2.15901 15.3595C2.58097 15.7696 3.15326 16 3.75 16C4.34674 16 4.91903 15.7696 5.34099 15.3595C5.76295 14.9494 6 14.3932 6 13.8132V13.0843H12V13.8132C12 14.3932 12.2371 14.9494 12.659 15.3595C13.081 15.7696 13.6533 16 14.25 16C14.8467 16 15.419 15.7696 15.841 15.3595C16.2629 14.9494 16.5 14.3932 16.5 13.8132V12.6928C16.9559 12.437 17.3346 12.0691 17.5979 11.626C17.8612 11.1829 17.9999 10.6802 18 10.1686V5.43052ZM4.7055 2.34424C4.88923 2.11395 5.14302 1.94585 5.43075 1.86387C6.57 1.31645 11.4308 1.31645 12.5693 1.86387C12.857 1.94585 13.1108 2.11395 13.2945 2.34424C14.4335 3.79572 15.3715 5.38622 16.0845 7.07499C11.3864 6.40874 6.61363 6.40874 1.9155 7.07499C2.62853 5.38622 3.56654 3.79572 4.7055 2.34424ZM4.5 13.8132C4.5 14.0065 4.42098 14.1919 4.28033 14.3286C4.13968 14.4653 3.94891 14.5421 3.75 14.5421C3.55109 14.5421 3.36032 14.4653 3.21967 14.3286C3.07902 14.1919 3 14.0065 3 13.8132V13.0843H4.5V13.8132ZM15 13.8132C15 14.0065 14.921 14.1919 14.7803 14.3286C14.6397 14.4653 14.4489 14.5421 14.25 14.5421C14.0511 14.5421 13.8603 14.4653 13.7197 14.3286C13.579 14.1919 13.5 14.0065 13.5 13.8132V13.0843H15V13.8132ZM15 11.6264H3C2.60218 11.6264 2.22064 11.4728 1.93934 11.1994C1.65804 10.926 1.5 10.5552 1.5 10.1686V8.60647C3.98307 8.23754 6.48855 8.02885 9 7.98178C11.5114 8.02885 14.0169 8.23754 16.5 8.60647V10.1686C16.5 10.5552 16.342 10.926 16.0607 11.1994C15.7794 11.4728 15.3978 11.6264 15 11.6264ZM4.5 10.1686C4.5 10.3619 4.42098 10.5473 4.28033 10.684C4.13968 10.8207 3.94891 10.8975 3.75 10.8975C3.55109 10.8975 3.36032 10.8207 3.21967 10.684C3.07902 10.5473 3 10.3619 3 10.1686C3 9.97524 3.07902 9.78983 3.21967 9.65313C3.36032 9.51643 3.55109 9.43964 3.75 9.43964C3.94891 9.43964 4.13968 9.51643 4.28033 9.65313C4.42098 9.78983 4.5 9.97524 4.5 10.1686ZM15 10.1686C15 10.3619 14.921 10.5473 14.7803 10.684C14.6397 10.8207 14.4489 10.8975 14.25 10.8975C14.0511 10.8975 13.8603 10.8207 13.7197 10.684C13.579 10.5473 13.5 10.3619 13.5 10.1686C13.5 9.97524 13.579 9.78983 13.7197 9.65313C13.8603 9.51643 14.0511 9.43964 14.25 9.43964C14.4489 9.43964 14.6397 9.51643 14.7803 9.65313C14.921 9.78983 15 9.97524 15 10.1686Z" fill="#939192"/>
</svg>
