<svg width="5" height="10" viewBox="0 0 5 10" fill="none" xmlns="http://www.w3.org/2000/svg">
<path d="M0.206184 0.936918C0.140851 0.996674 0.0889952 1.06777 0.0536073 1.1461C0.0182193 1.22442 0 1.30844 0 1.3933C0 1.47815 0.0182193 1.56217 0.0536073 1.64049C0.0889952 1.71882 0.140851 1.78992 0.206184 1.84967L3.39864 4.79362C3.46397 4.85338 3.51583 4.92447 3.55122 5.0028C3.58661 5.08113 3.60483 5.16515 3.60483 5.25C3.60483 5.33486 3.58661 5.41887 3.55122 5.4972C3.51583 5.57553 3.46397 5.64662 3.39864 5.70638L0.206184 8.65033C0.140851 8.71008 0.0889952 8.78118 0.0536073 8.85951C0.0182193 8.93784 0 9.02185 0 9.10671C0 9.19156 0.0182193 9.27558 0.0536073 9.35391C0.0889952 9.43224 0.140851 9.50333 0.206184 9.56308C0.336784 9.6828 0.513451 9.75 0.697599 9.75C0.881748 9.75 1.05842 9.6828 1.18901 9.56308L4.38844 6.6127C4.78004 6.25114 5 5.76102 5 5.25C5 4.73899 4.78004 4.24887 4.38844 3.8873L1.18901 0.936918C1.05842 0.817199 0.881748 0.75 0.697599 0.75C0.513451 0.75 0.336784 0.817199 0.206184 0.936918Z" fill="#939192"/>
</svg>
