<svg width="8" height="8" viewBox="0 0 8 8" fill="none" xmlns="http://www.w3.org/2000/svg">
<path d="M3.51784 5.47578C3.41544 5.47578 3.33693 5.44506 3.28232 5.38362C3.2277 5.32218 3.2004 5.23685 3.2004 5.12762V3.24858C3.2004 3.13594 3.2277 3.05061 3.28232 2.99258C3.33693 2.93114 3.41544 2.90042 3.51784 2.90042C3.62024 2.90042 3.69874 2.93114 3.75336 2.99258C3.81138 3.05061 3.8404 3.13594 3.8404 3.24858V5.12762C3.8404 5.23685 3.81309 5.32218 3.75848 5.38362C3.70386 5.44506 3.62365 5.47578 3.51784 5.47578ZM3.51784 2.42426C3.39837 2.42426 3.3045 2.39525 3.23624 2.33722C3.17138 2.27578 3.13896 2.19215 3.13896 2.08634C3.13896 1.97711 3.17138 1.89349 3.23624 1.83546C3.3045 1.77743 3.39837 1.74842 3.51784 1.74842C3.64072 1.74842 3.73458 1.77743 3.79944 1.83546C3.86429 1.89349 3.89672 1.97711 3.89672 2.08634C3.89672 2.19215 3.86429 2.27578 3.79944 2.33722C3.73458 2.39525 3.64072 2.42426 3.51784 2.42426Z" fill="white"/>
<path d="M3.51953 0.288086C5.30436 0.288086 6.7517 1.73476 6.75195 3.51953C6.75195 5.30452 5.30452 6.75195 3.51953 6.75195C1.73476 6.7517 0.288086 5.30436 0.288086 3.51953C0.288339 1.73492 1.73492 0.288339 3.51953 0.288086Z" stroke="white" stroke-width="0.576"/>
</svg>
