<svg width="16" height="16" viewBox="0 0 16 16" fill="none" xmlns="http://www.w3.org/2000/svg">
<path d="M5.33325 4.66669H14.9999C15.2651 4.66669 15.5195 4.56133 15.707 4.37379C15.8946 4.18626 15.9999 3.9319 15.9999 3.66669C15.9999 3.40147 15.8946 3.14712 15.707 2.95958C15.5195 2.77204 15.2651 2.66669 14.9999 2.66669H5.33325C5.06804 2.66669 4.81368 2.77204 4.62615 2.95958C4.43861 3.14712 4.33325 3.40147 4.33325 3.66669C4.33325 3.9319 4.43861 4.18626 4.62615 4.37379C4.81368 4.56133 5.06804 4.66669 5.33325 4.66669Z" fill="#939192"/>
<path d="M14.9999 7.33331H5.33325C5.06804 7.33331 4.81368 7.43867 4.62615 7.62621C4.43861 7.81374 4.33325 8.0681 4.33325 8.33331C4.33325 8.59853 4.43861 8.85288 4.62615 9.04042C4.81368 9.22796 5.06804 9.33331 5.33325 9.33331H14.9999C15.2651 9.33331 15.5195 9.22796 15.707 9.04042C15.8946 8.85288 15.9999 8.59853 15.9999 8.33331C15.9999 8.0681 15.8946 7.81374 15.707 7.62621C15.5195 7.43867 15.2651 7.33331 14.9999 7.33331Z" fill="#939192"/>
<path d="M14.9999 12H5.33325C5.06804 12 4.81368 12.1054 4.62615 12.2929C4.43861 12.4804 4.33325 12.7348 4.33325 13C4.33325 13.2652 4.43861 13.5196 4.62615 13.7071C4.81368 13.8946 5.06804 14 5.33325 14H14.9999C15.2651 14 15.5195 13.8946 15.707 13.7071C15.8946 13.5196 15.9999 13.2652 15.9999 13C15.9999 12.7348 15.8946 12.4804 15.707 12.2929C15.5195 12.1054 15.2651 12 14.9999 12Z" fill="#939192"/>
<path d="M1.66667 5.33333C2.58714 5.33333 3.33333 4.58714 3.33333 3.66667C3.33333 2.74619 2.58714 2 1.66667 2C0.746192 2 0 2.74619 0 3.66667C0 4.58714 0.746192 5.33333 1.66667 5.33333Z" fill="#939192"/>
<path d="M1.66667 9.66665C2.58714 9.66665 3.33333 8.92045 3.33333 7.99998C3.33333 7.07951 2.58714 6.33331 1.66667 6.33331C0.746192 6.33331 0 7.07951 0 7.99998C0 8.92045 0.746192 9.66665 1.66667 9.66665Z" fill="#939192"/>
<path d="M1.66667 14.3333C2.58714 14.3333 3.33333 13.5871 3.33333 12.6667C3.33333 11.7462 2.58714 11 1.66667 11C0.746192 11 0 11.7462 0 12.6667C0 13.5871 0.746192 14.3333 1.66667 14.3333Z" fill="#939192"/>
</svg>
