<svg width="28" height="27" viewBox="0 0 28 27" fill="none" xmlns="http://www.w3.org/2000/svg">
<path d="M7.46112 6.96192H7.08105L11.585 2.45799C13.0529 0.99545 15.4283 0.99545 16.8961 2.45799L21.4001 6.96192H21.0191C20.1231 6.96192 19.2768 7.30913 18.6437 7.9476L14.8342 11.7402C14.5038 12.0706 13.9773 12.0706 13.6469 11.7402L9.83741 7.9476C9.20337 7.30913 8.358 6.96192 7.46112 6.96192Z" fill="#BAE0BD" stroke="#5E9C76" stroke-width="0.36" stroke-miterlimit="10"/>
<path d="M21.0369 19.6336H21.4187L16.9023 24.197C15.4309 25.6782 13.0493 25.6782 11.577 24.197L7.06152 19.6336H7.44336C8.34202 19.6336 9.19006 19.2819 9.82498 18.6346L13.6452 14.7922C13.9764 14.4574 14.5047 14.4574 14.836 14.7922L18.6561 18.6346C19.2902 19.2819 20.1382 19.6336 21.0369 19.6336Z" fill="#BAE0BD" stroke="#5E9C76" stroke-width="0.36" stroke-miterlimit="10"/>
<path d="M25.1617 15.9032L22.2952 18.7697H20.8344C20.251 18.7697 19.7067 18.5406 19.292 18.1321L15.5864 14.4371C14.8449 13.6956 13.6354 13.6956 12.8939 14.4371L9.18832 18.1321C8.77451 18.5406 8.22928 18.7697 7.64587 18.7697H6.18511L3.31864 15.9032C1.89606 14.4753 1.89606 12.1647 3.31864 10.7368L6.18511 7.87036H7.64587C8.22928 7.87036 8.77363 8.09947 9.18832 8.50795L12.8939 12.2029C13.2642 12.5732 13.7553 12.7588 14.2402 12.7588C14.725 12.7588 15.2161 12.5732 15.5864 12.2029L19.292 8.50795C19.7058 8.09947 20.251 7.87036 20.8344 7.87036H22.2952L25.1617 10.7368C26.5834 12.1647 26.5834 14.4753 25.1617 15.9032Z" fill="#BAE0BD" stroke="#5E9C76" stroke-width="0.36" stroke-miterlimit="10"/>
</svg>
