<svg width="18" height="18" viewBox="0 0 18 18" fill="none" xmlns="http://www.w3.org/2000/svg">
<path d="M8.81853 12C8.26442 12 7.72275 11.8241 7.26202 11.4944C6.80129 11.1648 6.44219 10.6962 6.23014 10.1481C6.01809 9.59987 5.96261 8.99667 6.07071 8.41473C6.17881 7.83279 6.44565 7.29824 6.83746 6.87868C7.22928 6.45912 7.72849 6.1734 8.27196 6.05765C8.81542 5.94189 9.37874 6.0013 9.89068 6.22836C10.4026 6.45543 10.8402 6.83994 11.148 7.33329C11.4559 7.82664 11.6202 8.40666 11.6202 9C11.6202 9.79565 11.325 10.5587 10.7996 11.1213C10.2742 11.6839 9.56158 12 8.81853 12ZM8.81853 7.5C8.54148 7.5 8.27064 7.58798 8.04028 7.7528C7.80991 7.91762 7.63036 8.15189 7.52434 8.42598C7.41831 8.70007 7.39057 9.00167 7.44462 9.29264C7.49867 9.58361 7.63209 9.85088 7.828 10.0607C8.02391 10.2704 8.27351 10.4133 8.54525 10.4712C8.81698 10.5291 9.09864 10.4994 9.35461 10.3858C9.61057 10.2723 9.82935 10.08 9.98328 9.83336C10.1372 9.58668 10.2194 9.29667 10.2194 9C10.2194 8.60218 10.0718 8.22065 9.80907 7.93934C9.54636 7.65804 9.19005 7.5 8.81853 7.5ZM13.021 17.25C13.021 16.0565 12.5783 14.9119 11.7901 14.068C11.002 13.2241 9.9331 12.75 8.81853 12.75C7.70397 12.75 6.63505 13.2241 5.84693 14.068C5.05881 14.9119 4.61605 16.0565 4.61605 17.25C4.61605 17.4489 4.68985 17.6397 4.8212 17.7803C4.95255 17.921 5.13071 18 5.31647 18C5.50223 18 5.68038 17.921 5.81173 17.7803C5.94309 17.6397 6.01688 17.4489 6.01688 17.25C6.01688 16.4544 6.31205 15.6913 6.83746 15.1287C7.36288 14.5661 8.07549 14.25 8.81853 14.25C9.56158 14.25 10.2742 14.5661 10.7996 15.1287C11.325 15.6913 11.6202 16.4544 11.6202 17.25C11.6202 17.4489 11.694 17.6397 11.8253 17.7803C11.9567 17.921 12.1348 18 12.3206 18C12.5064 18 12.6845 17.921 12.8159 17.7803C12.9472 17.6397 13.021 17.4489 13.021 17.25ZM13.021 6C12.4669 6 11.9252 5.82405 11.4645 5.49441C11.0038 5.16477 10.6447 4.69623 10.4326 4.14805C10.2206 3.59987 10.1651 2.99667 10.2732 2.41473C10.3813 1.83279 10.6481 1.29824 11.0399 0.878681C11.4318 0.459124 11.931 0.173401 12.4744 0.0576455C13.0179 -0.0581102 13.5812 0.00129984 14.0932 0.228363C14.6051 0.455426 15.0427 0.839943 15.3505 1.33329C15.6584 1.82664 15.8227 2.40666 15.8227 3C15.8227 3.79565 15.5275 4.55871 15.0021 5.12132C14.4767 5.68393 13.7641 6 13.021 6ZM13.021 1.5C12.744 1.5 12.4731 1.58797 12.2428 1.7528C12.0124 1.91762 11.8328 2.15189 11.7268 2.42598C11.6208 2.70007 11.5931 3.00167 11.6471 3.29264C11.7012 3.58361 11.8346 3.85088 12.0305 4.06066C12.2264 4.27044 12.476 4.4133 12.7477 4.47118C13.0195 4.52906 13.3011 4.49935 13.5571 4.38582C13.8131 4.27229 14.0318 4.08003 14.1858 3.83336C14.3397 3.58668 14.4218 3.29667 14.4218 3C14.4218 2.60218 14.2743 2.22065 14.0115 1.93934C13.7488 1.65804 13.3925 1.5 13.021 1.5ZM17.2235 11.25C17.2224 10.0569 16.7793 8.91299 15.9914 8.06934C15.2035 7.22568 14.1352 6.75119 13.021 6.75C12.8353 6.75 12.6571 6.82902 12.5257 6.96967C12.3944 7.11032 12.3206 7.30109 12.3206 7.5C12.3206 7.69891 12.3944 7.88968 12.5257 8.03033C12.6571 8.17098 12.8353 8.25 13.021 8.25C13.7641 8.25 14.4767 8.56607 15.0021 9.12868C15.5275 9.69129 15.8227 10.4544 15.8227 11.25C15.8227 11.4489 15.8965 11.6397 16.0278 11.7803C16.1592 11.921 16.3373 12 16.5231 12C16.7088 12 16.887 11.921 17.0183 11.7803C17.1497 11.6397 17.2235 11.4489 17.2235 11.25ZM4.61605 6C4.06194 6 3.52027 5.82405 3.05954 5.49441C2.59881 5.16477 2.23971 4.69623 2.02766 4.14805C1.81561 3.59987 1.76013 2.99667 1.86823 2.41473C1.97634 1.83279 2.24317 1.29824 2.63499 0.878681C3.0268 0.459124 3.52601 0.173401 4.06948 0.0576455C4.61295 -0.0581102 5.17626 0.00129984 5.6882 0.228363C6.20013 0.455426 6.63769 0.839943 6.94554 1.33329C7.25339 1.82664 7.41771 2.40666 7.41771 3C7.41771 3.79565 7.12253 4.55871 6.59712 5.12132C6.07171 5.68393 5.3591 6 4.61605 6ZM4.61605 1.5C4.339 1.5 4.06816 1.58797 3.8378 1.7528C3.60743 1.91762 3.42788 2.15189 3.32186 2.42598C3.21583 2.70007 3.18809 3.00167 3.24214 3.29264C3.29619 3.58361 3.42961 3.85088 3.62552 4.06066C3.82143 4.27044 4.07103 4.4133 4.34277 4.47118C4.6145 4.52906 4.89616 4.49935 5.15213 4.38582C5.40809 4.27229 5.62687 4.08003 5.7808 3.83336C5.93472 3.58668 6.01688 3.29667 6.01688 3C6.01688 2.60218 5.86929 2.22065 5.60659 1.93934C5.34388 1.65804 4.98758 1.5 4.61605 1.5ZM1.8144 11.25C1.8144 10.4544 2.10957 9.69129 2.63499 9.12868C3.1604 8.56607 3.87301 8.25 4.61605 8.25C4.80181 8.25 4.97997 8.17098 5.11132 8.03033C5.24267 7.88968 5.31647 7.69891 5.31647 7.5C5.31647 7.30109 5.24267 7.11032 5.11132 6.96967C4.97997 6.82902 4.80181 6.75 4.61605 6.75C3.50183 6.75119 2.43356 7.22568 1.64568 8.06934C0.857804 8.91299 0.414687 10.0569 0.413574 11.25C0.413574 11.4489 0.487368 11.6397 0.618721 11.7803C0.750073 11.921 0.928226 12 1.11399 12C1.29975 12 1.4779 11.921 1.60925 11.7803C1.74061 11.6397 1.8144 11.4489 1.8144 11.25Z" fill="#333333"/>
</svg>
