<svg width="20" height="20" viewBox="0 0 20 20" fill="none" xmlns="http://www.w3.org/2000/svg">
<path d="M10 0C4.48614 0 6.45332e-05 4.48609 6.45332e-05 10C6.45332e-05 11.7217 0.444846 13.4148 1.28832 14.9087L0.0161514 19.4478C-0.0255876 19.597 0.0148471 19.757 0.122673 19.8678C0.205716 19.9535 0.318759 20 0.434846 20C0.469628 20 0.504845 19.9957 0.539193 19.9874L5.27657 18.8139C6.72309 19.5904 8.35221 20 10 20C15.5139 20 20 15.5139 20 10C20 4.48609 15.5139 0 10 0ZM15.0305 13.5287C14.8165 14.1209 13.7905 14.6613 13.2974 14.7339C12.8548 14.7987 12.2948 14.8265 11.68 14.6335C11.3074 14.5161 10.8292 14.3604 10.2166 14.0991C7.64134 13.0009 5.95961 10.4404 5.83092 10.2713C5.70266 10.1022 4.78266 8.89696 4.78266 7.64956C4.78266 6.40217 5.4457 5.7887 5.68135 5.53478C5.917 5.28087 6.19483 5.21739 6.36613 5.21739C6.53743 5.21739 6.7083 5.21956 6.8583 5.22652C7.01613 5.23435 7.22787 5.16696 7.43613 5.66174C7.65004 6.16957 8.16352 7.41696 8.22699 7.54435C8.29134 7.6713 8.33395 7.81957 8.24873 7.9887C8.16352 8.15783 8.12091 8.26348 7.99221 8.41174C7.86352 8.56 7.72265 8.74217 7.607 8.85609C7.4783 8.98261 7.34482 9.11957 7.49439 9.37348C7.64395 9.62739 8.15917 10.4574 8.92264 11.1296C9.90308 11.993 10.7305 12.2609 10.987 12.3878C11.2435 12.5148 11.3935 12.4935 11.5431 12.3243C11.6926 12.1548 12.1848 11.5839 12.3557 11.3304C12.5265 11.077 12.6978 11.1187 12.9335 11.2035C13.1692 11.2878 14.4313 11.9009 14.6878 12.0278C14.9444 12.1548 15.1157 12.2183 15.18 12.3239C15.2444 12.4291 15.2444 12.937 15.0305 13.5287Z" fill="#5E9C76"/>
</svg>
