<svg width="4" height="8" viewBox="0 0 4 8" fill="none" xmlns="http://www.w3.org/2000/svg">
<path d="M0.160468 0.15755C0.109699 0.207905 0.0694016 0.267813 0.0419019 0.33382C0.0144022 0.399827 0.000244141 0.470626 0.000244141 0.542133C0.000244141 0.613639 0.0144022 0.684438 0.0419019 0.750445C0.0694016 0.816453 0.109699 0.876361 0.160468 0.926716L2.6413 3.40755C2.69207 3.4579 2.73237 3.51781 2.75987 3.58382C2.78737 3.64983 2.80153 3.72063 2.80153 3.79213C2.80153 3.86364 2.78737 3.93444 2.75987 4.00045C2.73237 4.06645 2.69207 4.12636 2.6413 4.17672L0.160468 6.65755C0.109699 6.7079 0.0694016 6.76781 0.0419019 6.83382C0.0144022 6.89983 0.000244141 6.97063 0.000244141 7.04213C0.000244141 7.11364 0.0144022 7.18444 0.0419019 7.25045C0.0694016 7.31645 0.109699 7.37636 0.160468 7.42672C0.261956 7.5276 0.399243 7.58423 0.542343 7.58423C0.685444 7.58423 0.82273 7.5276 0.924218 7.42672L3.41047 4.94047C3.71478 4.63578 3.88571 4.22276 3.88571 3.79213C3.88571 3.36151 3.71478 2.94849 3.41047 2.6438L0.924218 0.15755C0.82273 0.056664 0.685444 3.62396e-05 0.542343 3.62396e-05C0.399243 3.62396e-05 0.261956 0.056664 0.160468 0.15755Z" fill="#FFD52C"/>
</svg>
